<svg width="45" height="45" viewBox="0 0 45 45" fill="none" xmlns="http://www.w3.org/2000/svg">
<g clip-path="url(#clip0_109_19)">
<path d="M13.0965 28.7236V30.7336C13.0965 32.842 13.9341 34.8641 15.425 36.3551C16.9159 37.846 18.938 38.6836 21.0465 38.6836C23.155 38.6836 25.1771 37.846 26.668 36.3551C28.1589 34.8641 28.9965 32.842 28.9965 30.7336V30.1816C30.685 29.8729 32.2104 28.9785 33.3041 27.6556C34.3978 26.3328 34.9897 24.6664 34.9755 22.9501V18.5131C34.9747 17.8171 34.6979 17.1499 34.2058 16.6578C33.7137 16.1657 33.0465 15.8889 32.3505 15.8881H31.0305C30.7321 15.8881 30.446 16.0066 30.235 16.2176C30.024 16.4285 29.9055 16.7147 29.9055 17.0131C29.9055 17.3114 30.024 17.5976 30.235 17.8086C30.446 18.0195 30.7321 18.1381 31.0305 18.1381H32.3505C32.45 18.1381 32.5454 18.1776 32.6157 18.2479C32.686 18.3182 32.7255 18.4136 32.7255 18.5131V22.9501C32.7505 24.1871 32.3176 25.3898 31.5101 26.3272C30.7025 27.2646 29.5771 27.8707 28.35 28.0291C27.6764 28.0952 26.9964 28.0196 26.3537 27.8074C25.7111 27.5951 25.1199 27.2508 24.6181 26.7965C24.1164 26.3422 23.7152 25.7881 23.4403 25.1696C23.1654 24.5511 23.023 23.8819 23.022 23.2051V18.5131C23.0224 18.4137 23.062 18.3186 23.1323 18.2483C23.2025 18.1781 23.2977 18.1385 23.397 18.1381H24.7275C25.0259 18.1381 25.312 18.0195 25.523 17.8086C25.734 17.5976 25.8525 17.3114 25.8525 17.0131C25.8525 16.7147 25.734 16.4285 25.523 16.2176C25.312 16.0066 25.0259 15.8881 24.7275 15.8881H23.4C22.7041 15.8889 22.0368 16.1657 21.5447 16.6578C21.0526 17.1499 20.7758 17.8171 20.775 18.5131V23.2051C20.7718 24.8916 21.3726 26.5235 22.4685 27.8054C23.5644 29.0873 25.083 29.9345 26.7495 30.1936V30.7336C26.7495 31.4821 26.6021 32.2233 26.3156 32.9149C26.0292 33.6064 25.6093 34.2348 25.08 34.7641C24.5507 35.2934 23.9224 35.7132 23.2308 35.9997C22.5393 36.2861 21.798 36.4336 21.0495 36.4336C20.301 36.4336 19.5598 36.2861 18.8682 35.9997C18.1767 35.7132 17.5483 35.2934 17.019 34.7641C16.4897 34.2348 16.0699 33.6064 15.7834 32.9149C15.4969 32.2233 15.3495 31.4821 15.3495 30.7336V28.7236C16.2819 28.4527 17.0852 27.8544 17.6118 27.0387C18.1385 26.2231 18.3531 25.2448 18.2163 24.2835C18.0795 23.3223 17.6004 22.4427 16.8671 21.8064C16.1337 21.17 15.1954 20.8197 14.2245 20.8197C13.2536 20.8197 12.3153 21.17 11.582 21.8064C10.8486 22.4427 10.3696 23.3223 10.2327 24.2835C10.0959 25.2448 10.3106 26.2231 10.8372 27.0387C11.3639 27.8544 12.1672 28.4527 13.0995 28.7236H13.0965ZM14.2215 23.0896C14.574 23.0896 14.9185 23.1941 15.2115 23.3899C15.5046 23.5857 15.733 23.864 15.8679 24.1896C16.0027 24.5152 16.038 24.8735 15.9693 25.2192C15.9005 25.5649 15.7308 25.8824 15.4816 26.1316C15.2324 26.3808 14.9148 26.5506 14.5692 26.6193C14.2235 26.6881 13.8652 26.6528 13.5396 26.5179C13.214 26.383 12.9356 26.1546 12.7398 25.8616C12.544 25.5685 12.4395 25.224 12.4395 24.8716C12.4399 24.3991 12.6278 23.946 12.9619 23.6119C13.296 23.2778 13.749 23.09 14.2215 23.0896Z" fill="white"/>
<path d="M9.08252 44.625H35.9175C38.2055 44.6242 40.3996 43.7155 42.0181 42.0984C43.6366 40.4813 44.5472 38.288 44.55 36V13.785C44.5472 11.4984 43.6376 9.30619 42.0208 7.68929C40.4039 6.07239 38.2117 5.1628 35.925 5.16002H32.9415C33.159 3.65102 33.765 2.72402 34.1085 2.63252C34.2664 2.66982 34.4126 2.74565 34.5341 2.85323C34.6555 2.9608 34.7484 3.09678 34.8045 3.24902C34.9139 3.52082 35.125 3.73923 35.3929 3.85781C35.6608 3.97639 35.9644 3.98578 36.2391 3.88398C36.5138 3.78218 36.738 3.57722 36.8639 3.3127C36.9899 3.04817 37.0077 2.74495 36.9135 2.46752C36.7106 1.91659 36.3611 1.43153 35.9027 1.06463C35.4443 0.697733 34.8945 0.462921 34.3125 0.385517C34.2629 0.378236 34.2127 0.374726 34.1625 0.375017C32.3625 0.375017 30.969 2.36702 30.669 5.16002H11.946C12.1725 3.56702 12.8145 2.62352 13.02 2.61002C13.1966 2.63269 13.3636 2.70344 13.5027 2.81454C13.6419 2.92563 13.7478 3.07281 13.809 3.24002C13.9121 3.52009 14.1221 3.74775 14.393 3.87293C14.6639 3.99811 14.9735 4.01055 15.2535 3.90752C15.5336 3.80448 15.7613 3.59441 15.8864 3.32351C16.0116 3.05261 16.0241 2.74309 15.921 2.46302C15.7041 1.89193 15.331 1.39333 14.8443 1.02413C14.3576 0.654926 13.7769 0.429997 13.1685 0.375017C11.373 0.375017 9.97502 2.36702 9.67502 5.16002H9.07502C6.78968 5.16478 4.59942 6.07525 2.98414 7.69194C1.36886 9.30862 0.460293 11.4997 0.45752 13.785V36C0.460298 38.2867 1.36989 40.4789 2.98679 42.0957C4.60369 43.7127 6.79588 44.6222 9.08252 44.625ZM2.70752 13.785C2.7095 12.0949 3.38179 10.4745 4.57691 9.2794C5.77202 8.08429 7.39237 7.412 9.08252 7.41002H9.68252C9.98252 10.2045 11.3805 12.198 13.176 12.198C13.4744 12.198 13.7605 12.0795 13.9715 11.8685C14.1825 11.6575 14.301 11.3714 14.301 11.073C14.301 10.7746 14.1825 10.4885 13.9715 10.2775C13.7605 10.0665 13.4744 9.94802 13.176 9.94802C12.8625 9.94802 12.18 9.05852 11.9505 7.41002H30.669C30.969 10.2045 32.367 12.198 34.1625 12.198C34.4609 12.198 34.747 12.0795 34.958 11.8685C35.169 11.6575 35.2875 11.3714 35.2875 11.073C35.2875 10.7746 35.169 10.4885 34.958 10.2775C34.747 10.0665 34.4609 9.94802 34.1625 9.94802C33.849 9.94802 33.1665 9.05852 32.937 7.41002H35.9175C37.609 7.41002 39.2312 8.08143 40.428 9.27676C41.6247 10.4721 42.298 12.0936 42.3 13.785V36C42.298 37.6902 41.6258 39.3105 40.4306 40.5056C39.2355 41.7008 37.6152 42.373 35.925 42.375H9.08252C7.39237 42.373 5.77202 41.7008 4.57691 40.5056C3.38179 39.3105 2.7095 37.6902 2.70752 36V13.785Z" fill="white"/>
</g>
<defs>
<clipPath id="clip0_109_19">
<rect width="45" height="45" fill="white"/>
</clipPath>
</defs>
</svg>
