<svg width="22" height="22" viewBox="0 0 22 22" fill="none" xmlns="http://www.w3.org/2000/svg">
<path d="M11 0C4.93436 0 0 4.93436 0 11C0 17.0656 4.93436 22 11 22C17.0656 22 22 17.0656 22 11C22 4.93436 17.0656 0 11 0Z" fill="#FCD091"/>
<path d="M16.5753 8.66895L10.6169 14.6272C10.4381 14.8059 10.2035 14.8959 9.96882 14.8959C9.73416 14.8959 9.49951 14.8059 9.32076 14.6272L6.34165 11.6481C5.98312 11.2897 5.98312 10.7103 6.34165 10.352C6.70001 9.99342 7.27923 9.99342 7.63776 10.352L9.96882 12.683L15.2792 7.37284C15.6375 7.01431 16.2167 7.01431 16.5753 7.37284C16.9336 7.7312 16.9336 8.31042 16.5753 8.66895Z" fill="#1E1D2B"/>
</svg>
