<svg width="22" height="22" viewBox="0 0 22 22" fill="none" xmlns="http://www.w3.org/2000/svg">
<path d="M11 0C4.93436 0 0 4.93436 0 11C0 17.0656 4.93436 22 11 22C17.0656 22 22 17.0656 22 11C22 4.93436 17.0656 0 11 0Z" fill="white"/>
<path d="M16.5751 8.66901L10.6167 14.6272C10.438 14.806 10.2033 14.896 9.96869 14.896C9.73404 14.896 9.49939 14.806 9.32064 14.6272L6.34153 11.6481C5.983 11.2898 5.983 10.7104 6.34153 10.352C6.69989 9.99348 7.27911 9.99348 7.63764 10.352L9.96869 12.6831L15.279 7.3729C15.6374 7.01437 16.2166 7.01437 16.5751 7.3729C16.9335 7.73126 16.9335 8.31048 16.5751 8.66901Z" fill="#1E1D2B"/>
</svg>
