<svg width="40" height="40" viewBox="0 0 40 40" fill="none" xmlns="http://www.w3.org/2000/svg">
<g clip-path="url(#clip0_92_51)">
<path d="M28.9969 0.000229582C23.4319 0.0393926 18.8633 4.59846 18.8129 10.1632C18.7851 13.2297 20.089 16.0805 22.4066 18.0577C22.2503 18.4691 22.054 18.8641 21.8207 19.2372C21.1336 20.3352 21.8439 21.7761 23.1332 21.9028C23.2203 21.9113 23.3083 21.9026 23.392 21.8772C23.4758 21.8518 23.5538 21.8101 23.6214 21.7545C23.6891 21.699 23.7451 21.6306 23.7864 21.5534C23.8276 21.4762 23.8532 21.3916 23.8618 21.3045C23.8704 21.2174 23.8617 21.1294 23.8362 21.0456C23.8108 20.9619 23.7691 20.8839 23.7136 20.8163C23.658 20.7486 23.5897 20.6926 23.5124 20.6513C23.4352 20.6101 23.3506 20.5844 23.2635 20.5759C22.9586 20.546 22.7888 20.2033 22.9509 19.9443C23.3245 19.347 23.6183 18.7033 23.8248 18.0297C23.8644 17.9005 23.8639 17.7622 23.8231 17.6334C23.7824 17.5045 23.7034 17.391 23.5967 17.308C21.3783 15.5828 20.1206 12.9829 20.1461 10.1751C20.19 5.33381 24.1648 1.36743 29.0064 1.33335C34.0005 1.30302 37.9959 5.33173 37.9959 10.2582C37.9959 17.7521 31.9112 19.8402 28.2841 20.418C28.1977 20.4317 28.1148 20.4624 28.0402 20.5082C27.9656 20.554 27.9007 20.6141 27.8493 20.6849C27.798 20.7558 27.761 20.8361 27.7407 20.9212C27.7203 21.0064 27.7169 21.0947 27.7307 21.1812C27.7885 21.5446 28.1294 21.7921 28.4939 21.7346C35.028 20.6937 39.329 16.8408 39.329 10.2583C39.329 4.60463 34.7412 -0.0376002 28.9969 0.000229582Z" fill="#1E1D2B"/>
<path d="M29.4133 5.58276H28.7467C27.6441 5.58276 26.7469 6.47993 26.7469 7.58258V8.66581H25.6637C24.561 8.66581 23.6638 9.56297 23.6638 10.6656V11.3322C23.6638 12.4349 24.561 13.332 25.6637 13.332H26.7469V14.4153C26.7469 15.5179 27.6441 16.4151 28.7467 16.4151H29.4133C30.5159 16.4151 31.4131 15.5179 31.4131 14.4153V13.332H32.4963C33.599 13.332 34.4962 12.4349 34.4962 11.3322V10.6656C34.4962 9.56297 33.599 8.66581 32.4963 8.66581H31.4131V7.58258C31.4131 6.47985 30.516 5.58276 29.4133 5.58276ZM32.4963 9.99902C32.8639 9.99902 33.163 10.2981 33.163 10.6656V11.3322C33.163 11.6998 32.8639 11.9988 32.4963 11.9988H30.7465C30.5697 11.9988 30.4002 12.0691 30.2752 12.1941C30.1501 12.3191 30.0799 12.4886 30.0799 12.6654V14.4153C30.0799 14.7828 29.7809 15.0819 29.4133 15.0819H28.7467C28.3792 15.0819 28.0801 14.7828 28.0801 14.4153V12.6654C28.0801 12.4886 28.0099 12.3191 27.8848 12.1941C27.7598 12.0691 27.5903 11.9988 27.4135 11.9988H25.6637C25.2961 11.9988 24.9971 11.6998 24.9971 11.3322V10.6656C24.9971 10.2981 25.2961 9.99902 25.6637 9.99902H27.4135C27.5903 9.99902 27.7598 9.92878 27.8848 9.80377C28.0099 9.67876 28.0801 9.50921 28.0801 9.33241V7.58258C28.0801 7.21503 28.3792 6.91597 28.7467 6.91597H29.4133C29.7809 6.91597 30.0799 7.21503 30.0799 7.58258V9.33241C30.0799 9.50921 30.1501 9.67876 30.2752 9.80377C30.4002 9.92878 30.5697 9.99902 30.7465 9.99902H32.4963ZM28.65 26.0587C27.4136 25.3519 25.8406 25.5679 24.8248 26.5835C24.584 26.8248 23.2405 29.3272 19.8944 28.0788C16.3563 26.7589 13.2189 21.9956 15.7348 19.2164C16.2079 18.701 16.5252 18.5551 16.656 18.4246C17.6747 17.4058 17.8926 15.8308 17.1857 14.5944C16.018 12.5514 14.3188 10.8528 12.2717 9.68196C11.0574 8.98744 9.48759 9.20434 8.45435 10.2088C0.397694 18.0259 7.23589 30.9733 16.7897 36.1613C14.7503 38.7912 11.2016 39.2221 8.75858 38.0458C9.52 37.3133 10.0024 36.3764 10.055 35.3908C10.1201 34.1507 9.66774 33.1555 8.81382 32.6601C7.19806 31.7232 4.94293 32.9614 5.18141 35.365C5.27749 36.3312 5.70961 37.2214 6.3983 37.9581C6.23159 38.0171 6.06129 38.0655 5.88843 38.1028C5.09709 38.2734 3.12727 38.4212 1.92938 36.1108C1.84596 35.9575 1.70576 35.843 1.53888 35.792C1.372 35.7409 1.19174 35.7572 1.0368 35.8376C0.881866 35.9179 0.764601 36.0558 0.710183 36.2216C0.655765 36.3874 0.668533 36.568 0.745745 36.7245C1.87039 38.8936 3.8977 39.8958 6.16965 39.406C6.65313 39.3019 7.12042 39.1333 7.55894 38.9046C8.18405 39.2943 8.91064 39.5952 9.71349 39.7829C12.9042 40.5287 16.4129 39.3499 18.3346 36.2726C18.5427 35.9397 18.4189 35.4983 18.0662 35.3228C8.87032 30.7462 1.92164 18.4051 9.38327 11.1652C9.99321 10.5721 10.9088 10.4382 11.6099 10.8393C13.4507 11.8921 14.9786 13.4194 16.0283 15.2561C16.4285 15.956 16.3134 16.8469 15.752 17.442C15.6243 17.5316 15.4999 17.626 15.3792 17.7249C14.1619 15.8517 12.656 14.183 10.9172 12.7805C10.8491 12.7255 10.7708 12.6844 10.6869 12.6597C10.6029 12.6349 10.5149 12.627 10.4278 12.6363C10.3408 12.6455 10.2564 12.6719 10.1795 12.7138C10.1027 12.7557 10.0348 12.8124 9.97988 12.8805C9.92489 12.9486 9.88386 13.0269 9.85913 13.1108C9.8344 13.1948 9.82645 13.2828 9.83573 13.3699C9.84502 13.4569 9.87136 13.5413 9.91325 13.6181C9.95514 13.695 10.0118 13.7628 10.0799 13.8178C11.7913 15.1981 13.2616 16.853 14.4309 18.715C10.2427 24.4091 21.0914 34.2085 25.802 27.4928C26.3942 26.9298 27.2863 26.8148 27.9885 27.2162C29.8252 28.2661 31.3525 29.794 32.4052 31.6346C32.8062 32.3358 32.6722 33.2513 32.0795 33.861C31.9829 33.9602 31.8846 34.0577 31.7847 34.1534C30.6896 32.4579 29.3587 30.9267 27.8196 29.5943C27.7534 29.537 27.6766 29.4933 27.5936 29.4657C27.5105 29.4381 27.4228 29.4271 27.3355 29.4334C27.2482 29.4397 27.1629 29.4631 27.0847 29.5023C27.0064 29.5415 26.9367 29.5958 26.8794 29.662C26.8221 29.7282 26.7784 29.805 26.7508 29.8881C26.7231 29.9711 26.7122 30.0588 26.7185 30.1461C26.7247 30.2335 26.7482 30.3187 26.7874 30.3969C26.8266 30.4752 26.8808 30.545 26.947 30.6022C28.4351 31.8905 29.7148 33.3767 30.7589 35.0252C27.7238 37.297 24.3856 37.2416 21.9836 36.7239C21.8108 36.6867 21.6302 36.7196 21.4817 36.8155C21.3331 36.9113 21.2287 37.0623 21.1915 37.2351C21.1542 37.408 21.1872 37.5885 21.283 37.737C21.3789 37.8856 21.5299 37.99 21.7027 38.0272C26.2024 38.997 30.1012 37.8067 33.0354 34.7906C34.0404 33.757 34.2571 32.187 33.5626 30.9728C32.3919 28.9257 30.6932 27.2265 28.65 26.0587ZM8.72375 35.3203C8.685 36.0452 8.26021 36.7513 7.6086 37.2824C6.97874 36.7112 6.58461 36.0028 6.50812 35.2333C6.37722 33.9148 7.46753 33.4204 8.14497 33.8135C8.55668 34.0523 8.76216 34.5877 8.72375 35.3203Z" fill="#1E1D2B"/>
</g>
<defs>
<clipPath id="clip0_92_51">
<rect width="40" height="40" fill="white"/>
</clipPath>
</defs>
</svg>
