<svg width="40" height="40" viewBox="0 0 40 40" fill="none" xmlns="http://www.w3.org/2000/svg">
<g clip-path="url(#clip0_109_24)">
<path d="M26.4844 22.2109V17.7031H30.9922V12.5547H26.4844V8.04688H21.3359V12.5547H16.8281V17.7031H21.3359V22.2109H26.4844ZM18.1172 16.4141V13.8438H22.625V9.33594H25.1953V13.8438H29.7031V16.4141H25.1953V20.9219H22.625V16.4141H18.1172Z" fill="#1E1D2B"/>
<path d="M29.2187 26.8984C28.4687 26.1484 27.2422 26.1484 26.4922 26.8984L24.2187 29.1719C23.4687 29.9219 22.2422 29.9219 21.4922 29.1719L10.5625 18.2578C9.8125 17.5078 9.8125 16.2813 10.5625 15.5313L12.8359 13.2578C13.2031 12.8906 13.8906 11.6953 12.8359 10.5313L7.82812 5.52344C7.10156 4.79688 5.82812 4.79688 5.10156 5.52344L3.73437 6.88281C1.42969 9.1875 0.15625 12.2578 0.15625 15.5234C0.15625 18.7891 1.42969 21.8594 3.73437 24.1719L15.5625 36C17.9453 38.3828 21.0781 39.5781 24.2109 39.5781C27.3437 39.5781 30.4766 38.3828 32.8594 36L34.2266 34.6328C34.9766 33.8828 34.9766 32.6562 34.2266 31.9062L29.2187 26.8984ZM6.01562 6.42188C6.41406 6.07031 6.79687 6.29688 6.92969 6.42188L11.9375 11.4297C12.2969 11.8203 12.0625 12.2187 11.9375 12.3359L10.5703 13.7031L4.64844 7.78906L6.01562 6.42188ZM24.2109 38.2969C21.2891 38.2969 18.5391 37.1562 16.4766 35.0938L4.64844 23.2578C2.58594 21.1953 1.44531 18.4453 1.44531 15.5234C1.44531 13.0391 2.27344 10.6797 3.79687 8.75781L9.65625 14.6172C8.39843 15.875 8.39843 17.9141 9.65625 19.1641L20.5781 30.0859C21.8359 31.3438 23.875 31.3438 25.125 30.0859L30.9844 35.9453C29.0625 37.4609 26.7031 38.2969 24.2109 38.2969ZM33.3125 33.7266L31.9531 35.0938L26.0391 29.1797L27.4062 27.8125C27.6562 27.5625 28.0625 27.5625 28.3125 27.8125L33.3203 32.8203C33.5625 33.0703 33.5625 33.4766 33.3125 33.7266Z" fill="#1E1D2B"/>
<path d="M14.6566 29.636L13.7452 28.7247L14.6566 27.8133L15.5679 28.7247L14.6566 29.636ZM11.9244 26.8997L12.8358 25.9884L13.7471 26.8997L12.8358 27.8111L11.9244 26.8997ZM11.012 25.9935L10.1006 25.0821L11.012 24.1708L11.9233 25.0821L11.012 25.9935ZM33.8593 6.40625C40.125 12.6719 40.125 22.8672 33.8593 29.1328L34.7656 30.0391C41.5312 23.2734 41.5312 12.2656 34.7656 5.5C28 -1.26562 16.9921 -1.26562 10.2265 5.5L11.1328 6.40625C17.3984 0.140625 27.5937 0.140625 33.8593 6.40625Z" fill="#1E1D2B"/>
</g>
<defs>
<clipPath id="clip0_109_24">
<rect width="40" height="40" fill="white"/>
</clipPath>
</defs>
</svg>
