<svg width="102" height="14" viewBox="0 0 102 14" fill="none" xmlns="http://www.w3.org/2000/svg">
<g clip-path="url(#clip0_257_47)">
<path d="M101.963 5.09658C101.919 4.95809 101.834 4.83583 101.72 4.74498C101.606 4.65413 101.468 4.5987 101.323 4.58557L97.2821 4.21867L95.6849 0.479344C95.567 0.204616 95.2987 0.0273438 95 0.0273438C94.7014 0.0273438 94.433 0.204616 94.3158 0.479344L92.7186 4.21867L88.6766 4.58557C88.3803 4.61292 88.1294 4.81362 88.0367 5.09658C87.9915 5.2352 87.988 5.38402 88.0266 5.52461C88.0651 5.6652 88.1441 5.79139 88.2537 5.88754L91.3087 8.56629L90.4079 12.5336C90.342 12.8253 90.4552 13.127 90.6973 13.3019C90.8241 13.3941 90.9768 13.4438 91.1336 13.4437C91.268 13.4437 91.3999 13.4072 91.5152 13.3381L95 11.2544L98.4843 13.3381C98.6093 13.4129 98.7535 13.4493 98.899 13.4429C99.0445 13.4365 99.1849 13.3874 99.3028 13.3019C99.5448 13.127 99.6581 12.8253 99.5922 12.5336L98.6914 8.56632L101.746 5.88757C101.856 5.79142 101.935 5.66524 101.974 5.52464C102.012 5.38405 102.009 5.23522 101.963 5.09661V5.09658Z" fill="#1E1D2B"/>
</g>
<g clip-path="url(#clip1_257_47)">
<path d="M79.9634 5.09658C79.9185 4.95809 79.834 4.83583 79.7202 4.74498C79.6064 4.65413 79.4685 4.5987 79.3235 4.58557L75.2821 4.21867L73.6849 0.479344C73.567 0.204616 73.2987 0.0273438 73 0.0273438C72.7014 0.0273438 72.433 0.204616 72.3158 0.479344L70.7186 4.21867L66.6766 4.58557C66.3803 4.61292 66.1294 4.81362 66.0367 5.09658C65.9915 5.2352 65.988 5.38402 66.0266 5.52461C66.0651 5.6652 66.1441 5.79139 66.2537 5.88754L69.3087 8.56629L68.4079 12.5336C68.342 12.8253 68.4552 13.127 68.6973 13.3019C68.8241 13.3941 68.9768 13.4438 69.1336 13.4437C69.268 13.4437 69.3999 13.4072 69.5152 13.3381L73 11.2544L76.4843 13.3381C76.6093 13.4129 76.7535 13.4493 76.899 13.4429C77.0445 13.4365 77.1849 13.3874 77.3028 13.3019C77.5448 13.127 77.6581 12.8253 77.5922 12.5336L76.6914 8.56632L79.7464 5.88757C79.856 5.79142 79.935 5.66524 79.9735 5.52464C80.0121 5.38405 80.0086 5.23522 79.9634 5.09661V5.09658Z" fill="#1E1D2B"/>
</g>
<g clip-path="url(#clip2_257_47)">
<path d="M57.9634 5.09658C57.9185 4.95809 57.834 4.83583 57.7202 4.74498C57.6064 4.65413 57.4685 4.5987 57.3235 4.58557L53.2821 4.21867L51.6849 0.479344C51.567 0.204616 51.2987 0.0273438 51 0.0273438C50.7014 0.0273438 50.433 0.204616 50.3158 0.479344L48.7186 4.21867L44.6766 4.58557C44.3803 4.61292 44.1294 4.81362 44.0367 5.09658C43.9915 5.2352 43.988 5.38402 44.0266 5.52461C44.0651 5.6652 44.1441 5.79139 44.2537 5.88754L47.3087 8.56629L46.4079 12.5336C46.342 12.8253 46.4552 13.127 46.6973 13.3019C46.8241 13.3941 46.9768 13.4438 47.1336 13.4437C47.268 13.4437 47.3999 13.4072 47.5152 13.3381L51 11.2544L54.4843 13.3381C54.6093 13.4129 54.7535 13.4493 54.899 13.4429C55.0445 13.4365 55.1849 13.3874 55.3028 13.3019C55.5448 13.127 55.6581 12.8253 55.5922 12.5336L54.6914 8.56632L57.7464 5.88757C57.856 5.79142 57.935 5.66524 57.9735 5.52464C58.0121 5.38405 58.0086 5.23522 57.9634 5.09661V5.09658Z" fill="#1E1D2B"/>
</g>
<g clip-path="url(#clip3_257_47)">
<path d="M35.9634 5.09658C35.9185 4.95809 35.834 4.83583 35.7202 4.74498C35.6064 4.65413 35.4685 4.5987 35.3235 4.58557L31.2821 4.21867L29.6849 0.479344C29.567 0.204616 29.2987 0.0273438 29 0.0273438C28.7014 0.0273438 28.433 0.204616 28.3158 0.479344L26.7186 4.21867L22.6766 4.58557C22.3803 4.61292 22.1294 4.81362 22.0367 5.09658C21.9915 5.2352 21.988 5.38402 22.0266 5.52461C22.0651 5.6652 22.1441 5.79139 22.2537 5.88754L25.3087 8.56629L24.4079 12.5336C24.342 12.8253 24.4552 13.127 24.6973 13.3019C24.8241 13.3941 24.9768 13.4438 25.1336 13.4437C25.268 13.4437 25.3999 13.4072 25.5152 13.3381L29 11.2544L32.4843 13.3381C32.6093 13.4129 32.7535 13.4493 32.899 13.4429C33.0445 13.4365 33.1849 13.3874 33.3028 13.3019C33.5448 13.127 33.6581 12.8253 33.5922 12.5336L32.6914 8.56632L35.7464 5.88757C35.856 5.79142 35.935 5.66524 35.9735 5.52464C36.0121 5.38405 36.0086 5.23522 35.9634 5.09661V5.09658Z" fill="#1E1D2B"/>
</g>
<g clip-path="url(#clip4_257_47)">
<path d="M13.9634 5.09658C13.9185 4.95809 13.834 4.83583 13.7202 4.74498C13.6064 4.65413 13.4685 4.5987 13.3235 4.58557L9.2821 4.21867L7.68493 0.479344C7.56699 0.204616 7.29869 0.0273438 7.00004 0.0273438C6.70138 0.0273438 6.43297 0.204616 6.3158 0.479344L4.71863 4.21867L0.676602 4.58557C0.380273 4.61292 0.129362 4.81362 0.036665 5.09658C-0.0085039 5.2352 -0.0120174 5.38402 0.0265597 5.52461C0.0651368 5.6652 0.14411 5.79139 0.253696 5.88754L3.30868 8.56629L2.40793 12.5336C2.34203 12.8253 2.45523 13.127 2.69729 13.3019C2.82406 13.3941 2.97684 13.4438 3.13362 13.4437C3.26801 13.4437 3.39988 13.4072 3.51515 13.3381L7.00004 11.2544L10.4843 13.3381C10.6093 13.4129 10.7535 13.4493 10.899 13.4429C11.0445 13.4365 11.1849 13.3874 11.3028 13.3019C11.5448 13.127 11.6581 12.8253 11.5922 12.5336L10.6914 8.56632L13.7464 5.88757C13.856 5.79142 13.935 5.66524 13.9735 5.52464C14.0121 5.38405 14.0086 5.23522 13.9634 5.09661V5.09658Z" fill="#1E1D2B"/>
</g>
<defs>
<clipPath id="clip0_257_47">
<rect width="14" height="14" fill="white" transform="translate(88)"/>
</clipPath>
<clipPath id="clip1_257_47">
<rect width="14" height="14" fill="white" transform="translate(66)"/>
</clipPath>
<clipPath id="clip2_257_47">
<rect width="14" height="14" fill="white" transform="translate(44)"/>
</clipPath>
<clipPath id="clip3_257_47">
<rect width="14" height="14" fill="white" transform="translate(22)"/>
</clipPath>
<clipPath id="clip4_257_47">
<rect width="14" height="14" fill="white"/>
</clipPath>
</defs>
</svg>
