<svg width="45" height="45" viewBox="0 0 45 45" fill="none" xmlns="http://www.w3.org/2000/svg">
<path fill-rule="evenodd" clip-rule="evenodd" d="M22.4737 4.3918C17.5358 1.44067 13.7573 1.56017 9.85329 3.64095C7.71335 4.78163 6.2575 6.73045 5.45762 9.01989C4.28762 12.3686 4.53267 16.4461 6.03571 19.6578C8.37705 24.6603 8.78087 26.5628 9.48672 32.0906C10.2473 38.0476 13.2497 41.8844 15.5322 42.8338C16.7317 43.3325 17.8153 43.0079 18.6455 41.9847C19.6399 40.7599 20.2488 38.3279 20.0135 35.1104C19.8146 32.3835 20.4111 30.6059 21.2194 29.6277C21.6401 29.1199 22.0916 28.8411 22.4737 28.8411C22.8558 28.8411 23.3073 29.1199 23.728 29.6277C24.5363 30.6059 25.1326 32.3835 24.9339 35.1104C24.6986 38.3279 25.3075 40.7599 26.3019 41.9847C27.1321 43.0079 28.2156 43.3325 29.4153 42.8338C31.6977 41.8842 34.7 38.0476 35.4608 32.0906C36.1665 26.5628 36.5703 24.6603 38.9118 19.6578C40.4147 16.4461 40.6597 12.3684 39.4899 9.01989C38.6899 6.73045 37.234 4.78163 35.0941 3.64095C31.1921 1.56152 27.4102 1.44354 22.4737 4.3918ZM21.1239 5.23601C17.0309 2.9823 13.8248 3.11579 10.5135 4.88056C8.68885 5.8532 7.46543 7.53034 6.78368 9.48337C5.73014 12.4985 5.95413 16.1702 7.30818 19.0621C9.72756 24.2339 10.1504 26.1989 10.88 31.9129C11.2923 35.1421 12.3957 37.7006 13.6646 39.4143C14.4563 40.4825 15.2996 41.2156 16.0714 41.5367C16.6818 41.7902 17.2163 41.5626 17.6263 41.0078C17.9937 40.5106 18.2683 39.7948 18.4454 38.9071C18.6504 37.879 18.7164 36.631 18.6131 35.2131C18.3765 31.9788 19.1784 29.8923 20.1371 28.7329C20.8955 27.8157 21.784 27.4365 22.4737 27.4365C23.1633 27.4365 24.0517 27.8157 24.8103 28.7329C25.769 29.8925 26.5709 31.979 26.3342 35.2131C26.165 37.5335 26.4424 39.3925 27.0456 40.5597C27.4896 41.4185 28.1138 41.8534 28.876 41.5367C29.6477 41.2156 30.4911 40.4825 31.2827 39.4143C32.5518 37.7006 33.6551 35.1421 34.0673 31.9129C34.7971 26.1989 35.2198 24.2339 37.6392 19.0621C38.9932 16.17 39.2172 12.4985 38.1638 9.48354C37.4819 7.53034 36.2585 5.8532 34.4339 4.88073C30.8642 2.97792 27.4122 2.97388 22.8438 5.80972C22.5981 5.96275 20.7559 7.56623 16.8686 7.64006C16.6823 7.64339 16.5024 7.5727 16.3682 7.4435C16.234 7.31429 16.1566 7.13713 16.153 6.9509C16.1496 6.76469 16.2203 6.58476 16.3495 6.4506C16.4786 6.31644 16.6557 6.239 16.8419 6.23528C18.8808 6.19668 20.2796 5.67859 21.1239 5.23601ZM8.15576 17.5781C8.15576 17.5781 11.1976 23.3954 11.5901 28.891C11.6033 29.0767 11.6898 29.2496 11.8304 29.3717C11.971 29.4937 12.1543 29.5549 12.3401 29.5419C12.4321 29.5353 12.5219 29.5107 12.6044 29.4694C12.6868 29.4281 12.7604 29.371 12.8208 29.3013C12.8812 29.2316 12.9272 29.1507 12.9564 29.0631C12.9855 28.9756 12.9971 28.8832 12.9905 28.7912C12.5796 23.0296 9.40177 16.9286 9.40177 16.9286C9.31564 16.7634 9.16739 16.6391 8.98965 16.5832C8.81191 16.5273 8.61922 16.5442 8.45399 16.6304C8.28876 16.7165 8.16451 16.8647 8.10859 17.0425C8.05266 17.2202 8.06963 17.4129 8.15576 17.5781ZM37.3724 12.9585C36.887 7.43545 31.4218 4.48163 26.436 6.39404C26.2623 6.46099 26.1221 6.59408 26.0463 6.76417C25.9705 6.93426 25.9652 7.12747 26.0315 7.30146C26.0985 7.47523 26.2316 7.61539 26.4017 7.69121C26.5718 7.76702 26.765 7.77233 26.939 7.70595C31.048 6.12927 35.5731 8.52977 35.9727 13.0807C35.9921 13.2638 36.0825 13.4319 36.2246 13.549C36.3667 13.6661 36.5491 13.7227 36.7325 13.7067C36.9159 13.6906 37.0857 13.6033 37.2054 13.4634C37.3251 13.3235 37.385 13.1422 37.3724 12.9585Z" fill="#1E1D2B"/>
</svg>
