<svg width="45" height="45" viewBox="0 0 45 45" fill="none" xmlns="http://www.w3.org/2000/svg">
<path d="M33.0469 21.0938C31.9212 21.0938 30.8489 21.3195 29.8659 21.721C30.1302 20.1304 30.554 18.5705 31.1309 17.0649L32.2861 14.0618C32.7901 12.7547 33.048 11.3656 33.0469 9.96472C33.0469 5.24534 29.2078 1.40628 24.4884 1.40628C23.2631 1.41006 22.0734 1.81922 21.105 2.56995C19.6803 1.36006 17.8708 0.698122 16.0017 0.703153H15.8948C14.168 0.703153 12.4931 1.18972 11.0377 2.11222C6.87023 2.22542 3.51562 5.65034 3.51562 9.84378V13.0282C3.51562 14.772 4.05141 16.444 5.06531 17.8629C6.36696 19.6875 7.16968 21.8204 7.39406 24.0504C7.62879 26.3987 8.19284 28.7022 9.06961 30.8932C10.11 33.5038 11.6729 35.8743 13.6624 37.8591C14.1832 38.3777 14.8877 38.6698 15.6227 38.6719C15.9198 38.6714 16.2128 38.6033 16.4796 38.4728C16.7464 38.3423 16.98 38.1528 17.1628 37.9187C17.3456 37.6846 17.4727 37.412 17.5345 37.1214C17.5964 36.8309 17.5913 36.5302 17.5198 36.2419L16.9671 34.0334C16.4392 31.9196 16.1721 29.749 16.1719 27.5703C16.1719 26.266 16.6029 24.9722 17.3862 23.9281C17.5555 23.7035 17.7745 23.5212 18.026 23.3955C18.2776 23.2697 18.5548 23.2039 18.836 23.2032C19.5265 23.2032 20.148 23.5871 20.4574 24.2051C20.8749 25.043 21.0927 25.9662 21.0938 26.9023C21.0938 31.3854 20.4954 35.8496 19.3141 40.1808C19.0953 40.9835 18.9844 41.8118 18.9844 42.6439C18.9849 43.0821 19.1593 43.5022 19.4692 43.8121C19.779 44.122 20.1992 44.2963 20.6374 44.2969C21.143 44.2969 21.6134 44.0712 21.9284 43.6768L24.2262 40.8038C25.3678 39.3733 26.3429 37.8176 27.1329 36.1667C29.3646 40.0437 32.298 43.7787 32.4956 44.0297C32.5613 44.1132 32.6451 44.1807 32.7406 44.2271C32.8362 44.2736 32.941 44.2977 33.0472 44.2977C33.1535 44.2977 33.2583 44.2736 33.3538 44.2271C33.4494 44.1807 33.5332 44.1132 33.5988 44.0297C33.9202 43.6219 41.4844 33.9961 41.4844 29.5313C41.4844 24.8787 37.6995 21.0938 33.0469 21.0938ZM16.0017 2.1094C17.502 2.10501 18.9569 2.62394 20.1157 3.57683C19.5788 4.27903 19.219 5.10024 19.0666 5.97097C18.3939 6.12526 17.7336 6.32902 17.0909 6.58057C16.0606 4.93704 14.5989 3.60789 12.8651 2.738C13.8213 2.32403 14.8521 2.11011 15.8941 2.1094H16.0017ZM23.1279 39.9249L20.8294 42.7985C20.6986 42.9631 20.3906 42.8548 20.3906 42.6439C20.3906 41.9358 20.4848 41.2313 20.6733 40.5415C21.8858 36.0965 22.5001 31.5097 22.5 26.9023C22.5 25.7534 22.2286 24.6031 21.7153 23.5765C21.4495 23.0406 21.0389 22.5898 20.53 22.2753C20.0211 21.9607 19.4343 21.795 18.836 21.7969C18.3366 21.7982 17.8442 21.9151 17.3975 22.1384C16.9508 22.3618 16.5619 22.6855 16.2612 23.0843C15.2932 24.3799 14.7688 25.953 14.7656 27.5703C14.7656 29.8632 15.0469 32.1525 15.603 34.3751L16.155 36.5829C16.175 36.6638 16.1764 36.7483 16.159 36.8298C16.1417 36.9113 16.106 36.9879 16.0547 37.0536C16.0035 37.1194 15.938 37.1726 15.8631 37.2093C15.7883 37.2461 15.7061 37.2653 15.6227 37.2657C15.2606 37.2644 14.9136 37.1207 14.6566 36.8656C12.8022 35.0153 11.3453 32.8056 10.3753 30.3722C9.54688 28.3036 9.01429 26.1285 8.79328 23.9112C8.54475 21.4369 7.654 19.0706 6.2093 17.0466C5.36957 15.8752 4.91921 14.4695 4.92188 13.0282V9.84378C4.92188 6.39284 7.69852 3.58386 11.1347 3.52128C12.3433 3.94094 13.4512 4.60785 14.3877 5.47949C15.3242 6.35113 16.0688 7.40836 16.5741 8.58378L16.932 9.41839L18.2243 8.86362L17.8664 8.02972C17.8362 7.96011 17.7975 7.89542 17.7666 7.82651C19.1618 7.30427 20.639 7.03498 22.1287 7.03128C24.0834 7.03128 26.0037 7.56284 27.6806 8.56901L28.466 9.04081L29.1895 7.83495L28.4041 7.36315C26.5085 6.22592 24.3394 5.62515 22.1287 5.62503C21.6084 5.62503 21.093 5.65808 20.5819 5.71433C20.7738 5.07291 21.1205 4.48856 21.5916 4.01276C22.3614 3.24679 23.4024 2.81548 24.4884 2.81253C28.4323 2.81253 31.6406 6.02089 31.6406 9.96472C31.6417 11.193 31.4155 12.411 30.9734 13.557L29.8181 16.56C29.0807 18.4853 28.5803 20.4932 28.3282 22.5394C26.0859 24.0582 24.6094 26.6253 24.6094 29.5313C24.6094 30.8869 25.3083 32.7185 26.2884 34.6233C25.4806 36.5259 24.4173 38.3095 23.1279 39.9249ZM33.0469 42.4449C30.6675 39.3188 26.0156 32.5772 26.0156 29.5313C26.0156 25.6542 29.1698 22.5 33.0469 22.5C36.9239 22.5 40.0781 25.6542 40.0781 29.5313C40.0781 32.5751 35.4263 39.3181 33.0469 42.4449Z" fill="#1E1D2B"/>
<path d="M33.0469 24.6094C30.3335 24.6094 28.125 26.8179 28.125 29.5312C28.125 32.2446 30.3335 34.4531 33.0469 34.4531C35.7602 34.4531 37.9688 32.2446 37.9688 29.5312C37.9688 26.8179 35.7602 24.6094 33.0469 24.6094ZM33.0469 33.0469C31.1084 33.0469 29.5312 31.4698 29.5312 29.5312C29.5312 27.5927 31.1084 26.0156 33.0469 26.0156C34.9854 26.0156 36.5625 27.5927 36.5625 29.5312C36.5625 31.4698 34.9854 33.0469 33.0469 33.0469Z" fill="#1E1D2B"/>
</svg>
