<svg width="45" height="45" viewBox="0 0 45 45" fill="none" xmlns="http://www.w3.org/2000/svg">
<path fill-rule="evenodd" clip-rule="evenodd" d="M22.4737 4.39192C17.5358 1.4408 13.7573 1.56029 9.85329 3.64108C7.71335 4.78175 6.2575 6.73057 5.45762 9.02001C4.28762 12.3687 4.53267 16.4462 6.03571 19.6579C8.37705 24.6605 8.78087 26.5629 9.48672 32.0907C10.2473 38.0477 13.2497 41.8845 15.5322 42.8339C16.7317 43.3326 17.8153 43.008 18.6455 41.9848C19.6399 40.76 20.2488 38.328 20.0135 35.1106C19.8146 32.3836 20.4111 30.606 21.2194 29.6278C21.6401 29.12 22.0916 28.8412 22.4737 28.8412C22.8558 28.8412 23.3073 29.12 23.728 29.6278C24.5363 30.606 25.1326 32.3836 24.9339 35.1106C24.6986 38.328 25.3075 40.76 26.3019 41.9848C27.1321 43.008 28.2156 43.3326 29.4153 42.8339C31.6977 41.8843 34.7 38.0477 35.4608 32.0907C36.1665 26.5629 36.5703 24.6605 38.9118 19.6579C40.4147 16.4462 40.6597 12.3685 39.4899 9.02001C38.6899 6.73057 37.234 4.78175 35.0941 3.64108C31.1921 1.56164 27.4102 1.44366 22.4737 4.39192ZM21.1239 5.23613C17.0309 2.98242 13.8248 3.11591 10.5135 4.88068C8.68885 5.85332 7.46543 7.53046 6.78368 9.48349C5.73014 12.4987 5.95413 16.1703 7.30818 19.0623C9.72756 24.2341 10.1504 26.1991 10.88 31.913C11.2923 35.1423 12.3957 37.7007 13.6646 39.4144C14.4563 40.4826 15.2996 41.2157 16.0714 41.5368C16.6818 41.7903 17.2163 41.5628 17.6263 41.0079C17.9937 40.5107 18.2683 39.795 18.4454 38.9073C18.6504 37.8792 18.7164 36.6311 18.6131 35.2132C18.3765 31.9789 19.1784 29.8924 20.1371 28.733C20.8955 27.8158 21.784 27.4366 22.4737 27.4366C23.1633 27.4366 24.0517 27.8158 24.8103 28.733C25.769 29.8926 26.5709 31.9791 26.3342 35.2132C26.165 37.5337 26.4424 39.3927 27.0456 40.5598C27.4896 41.4187 28.1138 41.8535 28.876 41.5368C29.6477 41.2157 30.4911 40.4826 31.2827 39.4144C32.5518 37.7007 33.6551 35.1423 34.0673 31.913C34.7971 26.1991 35.2198 24.2341 37.6392 19.0623C38.9932 16.1701 39.2172 12.4987 38.1638 9.48366C37.4819 7.53046 36.2585 5.85332 34.4339 4.88085C30.8642 2.97804 27.4122 2.974 22.8438 5.80984C22.5981 5.96287 20.7559 7.56636 16.8686 7.64018C16.6823 7.64352 16.5024 7.57283 16.3682 7.44362C16.234 7.31441 16.1566 7.13725 16.153 6.95102C16.1496 6.76481 16.2203 6.58488 16.3495 6.45072C16.4786 6.31656 16.6557 6.23912 16.8419 6.2354C18.8808 6.19681 20.2796 5.67872 21.1239 5.23613ZM8.15576 17.5783C8.15576 17.5783 11.1976 23.3956 11.5901 28.8911C11.6033 29.0769 11.6898 29.2497 11.8304 29.3718C11.971 29.4938 12.1543 29.5551 12.3401 29.542C12.4321 29.5354 12.5219 29.5108 12.6044 29.4695C12.6868 29.4282 12.7604 29.3711 12.8208 29.3014C12.8812 29.2317 12.9272 29.1508 12.9564 29.0633C12.9855 28.9757 12.9971 28.8834 12.9905 28.7914C12.5796 23.0297 9.40177 16.9287 9.40177 16.9287C9.31564 16.7635 9.16739 16.6392 8.98965 16.5833C8.81191 16.5274 8.61922 16.5443 8.45399 16.6305C8.28876 16.7166 8.16451 16.8649 8.10859 17.0426C8.05266 17.2204 8.06963 17.413 8.15576 17.5783ZM37.3724 12.9586C36.887 7.43557 31.4218 4.48175 26.436 6.39417C26.2623 6.46111 26.1221 6.5942 26.0463 6.76429C25.9705 6.93438 25.9652 7.12759 26.0315 7.30158C26.0985 7.47536 26.2316 7.61551 26.4017 7.69133C26.5718 7.76715 26.765 7.77245 26.939 7.70608C31.048 6.12939 35.5731 8.5299 35.9727 13.0808C35.9921 13.2639 36.0825 13.432 36.2246 13.5491C36.3667 13.6662 36.5491 13.7228 36.7325 13.7068C36.9159 13.6908 37.0857 13.6034 37.2054 13.4635C37.3251 13.3236 37.385 13.1423 37.3724 12.9586Z" fill="#1E1D2B"/>
</svg>
